<svg xmlns="http://www.w3.org/2000/svg" width="24" height="24" viewBox="0 0 24 24" fill="none">
  <path d="M3.09375 2.144L3.09375 2.144L3.09484 2.14332C3.95746 1.6011 5.12487 1.58169 6.42641 2.22785L6.42641 2.22786L6.42838 2.22882L10.8666 4.40796C10.8669 4.40809 10.8672 4.40822 10.8674 4.40836C11.3743 4.65995 11.8496 5.11601 12.1989 5.67312C12.5485 6.23076 12.7487 6.85243 12.7487 7.41V22C12.7487 22.1339 12.6326 22.25 12.4987 22.25H4.07875C2.77684 22.25 1.71875 21.2059 1.71875 19.93V5.09C1.71875 3.68409 2.23669 2.67967 3.09375 2.144ZM11.7487 21.75H12.2487V21.25V7.41C12.2487 6.90348 12.0503 6.37154 11.7728 5.93191C11.4956 5.49259 11.0998 5.08254 10.6371 4.86018L6.19912 2.68118L6.19883 2.68104C5.64299 2.40858 5.08681 2.25 4.55875 2.25C4.13296 2.25 3.7171 2.34764 3.35371 2.57603C2.56783 3.06467 2.21875 4.0224 2.21875 5.09V19.93C2.21875 20.9506 3.0673 21.75 4.07875 21.75H11.7487Z" fill="#718096" stroke="#718096" style="fill:#718096;fill:color(display-p3 0.4431 0.5020 0.5882);fill-opacity:1;stroke:#718096;stroke:color(display-p3 0.4431 0.5020 0.5882);stroke-opacity:1;"/>
  <path d="M12.5538 10.1786L12.5559 10.179L13.0235 10.2785L19.5611 11.738L19.5621 11.7382C20.4844 11.9421 21.1216 12.3024 21.5376 12.7924C21.9521 13.2806 22.1927 13.9514 22.2202 14.8651L22.23 15.1892V18.839C22.2252 20.035 21.9086 20.8666 21.373 21.4011C20.8375 21.9356 20.006 22.25 18.81 22.25H12.5C12.3661 22.25 12.25 22.1339 12.25 22V10.42C12.25 10.3394 12.2826 10.277 12.337 10.2347C12.4111 10.177 12.4818 10.1629 12.5538 10.1786ZM12.75 21.25V21.75H13.25H18.81C19.7297 21.75 20.5024 21.5847 21.0286 21.0585C21.5547 20.5324 21.72 19.7597 21.72 18.84V14.98V14.9709L21.7197 14.9618C21.6927 14.2241 21.5373 13.6008 21.1366 13.1199C20.7358 12.6389 20.1543 12.3782 19.4484 12.2219C19.4483 12.2219 19.4482 12.2218 19.4481 12.2218L13.359 10.862L12.75 10.726V11.35V21.25Z" fill="#718096" stroke="#718096" style="fill:#718096;fill:color(display-p3 0.4431 0.5020 0.5882);fill-opacity:1;stroke:#718096;stroke:color(display-p3 0.4431 0.5020 0.5882);stroke-opacity:1;"/>
  <path d="M8.97 9.25H5.5C5.36614 9.25 5.25 9.13386 5.25 9C5.25 8.86614 5.36614 8.75 5.5 8.75H8.97C9.10386 8.75 9.22 8.86614 9.22 9C9.22 9.13821 9.10952 9.25 8.97 9.25Z" fill="#718096" stroke="#718096" style="fill:#718096;fill:color(display-p3 0.4431 0.5020 0.5882);fill-opacity:1;stroke:#718096;stroke:color(display-p3 0.4431 0.5020 0.5882);stroke-opacity:1;"/>
  <path d="M8.97 13.25H5.5C5.36614 13.25 5.25 13.1339 5.25 13C5.25 12.8661 5.36614 12.75 5.5 12.75H8.97C9.10386 12.75 9.22 12.8661 9.22 13C9.22 13.1382 9.10952 13.25 8.97 13.25Z" fill="#718096" stroke="#718096" style="fill:#718096;fill:color(display-p3 0.4431 0.5020 0.5882);fill-opacity:1;stroke:#718096;stroke:color(display-p3 0.4431 0.5020 0.5882);stroke-opacity:1;"/>
  <path d="M15.2188 17.75C13.5688 17.75 12.2188 16.4 12.2188 14.75V10.52C12.2188 10.29 12.3187 10.08 12.4987 9.93001C12.6787 9.78001 12.9087 9.73001 13.1287 9.78001L17.6287 10.79C17.9687 10.87 18.2187 11.17 18.2187 11.52V14.74C18.2187 16.4 16.8787 17.75 15.2188 17.75ZM13.7188 11.46V14.75C13.7188 15.58 14.3888 16.25 15.2188 16.25C16.0487 16.25 16.7187 15.58 16.7187 14.75V12.13L13.7188 11.46Z" fill="#718096" style="fill:#718096;fill:color(display-p3 0.4431 0.5020 0.5882);fill-opacity:1;"/>
  <path d="M19.7188 17.75C18.0688 17.75 16.7188 16.4 16.7188 14.75V11.53C16.7188 11.3 16.8188 11.09 16.9988 10.95C17.1788 10.81 17.4087 10.75 17.6287 10.8L19.6588 11.25C21.6488 11.69 22.6487 12.86 22.7087 14.85C22.7087 14.87 22.7087 14.89 22.7087 14.91C22.6287 16.5 21.3187 17.75 19.7188 17.75ZM18.2188 12.46V14.75C18.2188 15.58 18.8888 16.25 19.7188 16.25C20.5087 16.25 21.1587 15.64 21.2087 14.86C21.1587 13.6 20.6388 13 19.3388 12.71L18.2188 12.46Z" fill="#718096" style="fill:#718096;fill:color(display-p3 0.4431 0.5020 0.5882);fill-opacity:1;"/>
</svg>